<?xml version="1.0" standalone="no"?><!DOCTYPE svg PUBLIC "-//W3C//DTD SVG 1.1//EN" "http://www.w3.org/Graphics/SVG/1.1/DTD/svg11.dtd"><svg t="1662172989029" class="icon" viewBox="0 0 1024 1024" version="1.1" xmlns="http://www.w3.org/2000/svg" p-id="1758" xmlns:xlink="http://www.w3.org/1999/xlink" width="50" height="50"><path d="M784.290909 649.309091c-37.236364-11.636364-88.436364-32.581818-146.618182-53.527273 34.909091-58.181818 60.509091-125.672727 79.127273-200.145454h-188.509091v-67.490909h230.4v-37.236364h-230.4V179.2h-93.090909c-16.290909 0-16.290909 16.290909-16.290909 16.290909v95.418182H186.181818v37.236364h232.727273V395.636364H228.072727v37.236363h372.363637c-13.963636 46.545455-32.581818 90.763636-53.527273 130.327273-121.018182-39.563636-249.018182-72.145455-330.472727-51.2-51.2 11.636364-86.109091 34.909091-104.727273 58.181818-90.763636 109.381818-25.6 274.618182 165.236364 274.618182 111.709091 0 221.090909-62.836364 304.872727-165.236364 125.672727 60.509091 372.363636 162.909091 372.363636 162.909091v-146.618182c-2.327273 0-32.581818-2.327273-169.890909-46.545454z m-525.963636 132.654545c-148.945455 0-190.836364-116.363636-118.690909-179.2 23.272727-20.945455 69.818182-32.581818 93.090909-34.909091 88.436364-9.309091 169.890909 25.6 265.309091 72.145455-67.490909 88.436364-153.6 141.963636-239.709091 141.963636z" fill="#1296db" p-id="1759"></path></svg>